<?xml version="1.0" encoding="utf-8"?>
<svg viewBox="0 0 24 24" fill="#ffffff" xmlns="http://www.w3.org/2000/svg"><path d="M18.88 7.44a6.84 6.84 0 00-5.38-5.29 7.26 7.26 0 00-6 1.46 6.57 6.57 0 00.28 10.49c.29.21.25 1.48.23 2v2.44a.51.51 0 00.15.36c.46.44 1 1 1.49 1.49s1 1.07 1.51 1.51a.52.52 0 00.35.14h1a.52.52 0 00.35-.14c.46-.44 1-1 1.51-1.51s1-1.05 1.49-1.49a.51.51 0 00.14-.4v-2.4c0-.49 0-1.8.26-2a6.6 6.6 0 002.62-6.66zM14.45 16v2h-4.9v-2zm-2.15 5h-.6c-.42-.41-.88-.88-1.34-1.35L9.72 19h4.56l-.64.65c-.46.47-.92.94-1.34 1.35zm3.36-7.73A2.25 2.25 0 0015 15h-2.5V9h1.27a.5.5 0 000-1h-3.54a.5.5 0 000 1h1.27v6H9a2.21 2.21 0 00-.64-1.72 5.57 5.57 0 01-.28-8.91 6.24 6.24 0 015.22-1.24 5.82 5.82 0 014.59 4.5 5.61 5.61 0 01-2.23 5.64z"/></svg>