<?xml version="1.0" encoding="utf-8"?>
<svg viewBox="0 0 24 24" fill="#ffffff" xmlns="http://www.w3.org/2000/svg">
<path d="M21 3.06l-.1-.1a3.28 3.28 0 00-4.6.04l-.8.8-.15-.15a.48.48 0 00-.7 0 .5.5 0 000 .71l.15.15L2.15 17.12a.47.47 0 00-.15.35v4a.5.5 0 00.5.5h4a.47.47 0 00.35-.15L19.53 9.2l.15.15a.51.51 0 00.32.15.5.5 0 00.35-.85l-.15-.15.8-.8a3.28 3.28 0 000-4.64zM6.43 20.89l-3.32-3.32L15.5 5.17l3.33 3.33zM20.33 7l-.8.8-3.32-3.33.8-.8a2.29 2.29 0 013.23 0l.09.09a2.29 2.29 0 010 3.24z"/>
</svg>